# xmcd
#
# Track frame offsets:
#	150
#	8423
#	19316
#	31268
#	41155
#	52486
#	65405
#	74837
#	89771
#	102974
#	116946
#	130262
#	140083
#	152016
#	162130
#	172571
#	185833
#	196412
#	206006
#	215759
#
# Disc length: 3021 seconds
#
# Revision: 1
# Processed by: cddbd v1.5.2PL0 Copyright (c) Steve Scherf et al.
# Submitted via: EZCDAudioConverter 2.0.3.1
#
DISCID=340bcb14
DTITLE=Various Artist - Rock and Roll Favorites
DYEAR=2006
DGENRE=Blues
TTITLE0=The Coasters - Yakety Yak
TTITLE1=Brook Benton - Frankie and Johnny
TTITLE2=Johnny Otis and His Orchestra - All Nite Long
TTITLE3=Little Richard - Ain't Nothin' Happenin'
TTITLE4=B.B. King - She's Dynamite
TTITLE5=Lloyd Price - Stagger Lee
TTITLE6=Elvis Presley - Blue Moon Of Kentucky
TTITLE7=Chuck Berry - Maybelline
TTITLE8=Roy Brown - New Rebecca
TTITLE9=The Five Keys - Come Go My Bal, Louise
TTITLE10=The Platters - All Night
TTITLE11=Boyd Bennett - Seventeen
TTITLE12=Joe Houston - Drag Race
TTITLE13=Clifton Chenier - Boppin' The Rock
TTITLE14=Hardrock Gunter - Gonna Dance All Night
TTITLE15=Jimmy Crawford - Resurrection
TTITLE16=The Bruvvers - Wake Up Little Suzy
TTITLE17=Guy Mitchell - Knee Deep In The Blues
TTITLE18=Little Ceasar - Move Me
TTITLE19=Wynonie Harris - Lovin' Machine
EXTD=
EXTT0=
EXTT1=
EXTT2=
EXTT3=
EXTT4=
EXTT5=
EXTT6=
EXTT7=
EXTT8=
EXTT9=
EXTT10=
EXTT11=
EXTT12=
EXTT13=
EXTT14=
EXTT15=
EXTT16=
EXTT17=
EXTT18=
EXTT19=
PLAYORDER=
